<?xml version="1.0" encoding="UTF-8" standalone="no"?>
<svg
   xmlns:dc="http://purl.org/dc/elements/1.1/"
   xmlns:cc="http://creativecommons.org/ns#"
   xmlns:rdf="http://www.w3.org/1999/02/22-rdf-syntax-ns#"
   xmlns:svg="http://www.w3.org/2000/svg"
   xmlns="http://www.w3.org/2000/svg"
   viewBox="0 0 178 287.61548"
   height="287.61548"
   width="178"
   version="1.1"
   id="svg2">
  <metadata
     id="metadata8">
    <rdf:RDF>
      <cc:Work
         rdf:about="">
        <dc:format>image/svg+xml</dc:format>
        <dc:type
           rdf:resource="http://purl.org/dc/dcmitype/StillImage" />
        <dc:title></dc:title>
      </cc:Work>
    </rdf:RDF>
  </metadata>
  <defs
     id="defs6" />
  <g
     transform="translate(0,7.1949153)"
     id="g3338">
    <path
       id="path3348"
       d="m 163.98884,250.08381 c -3.43845,-10.90626 -8.47497,-21.77791 -29.81313,-64.35353 L 108.5,134.5 l -3,0.33601 c -1.65,0.18481 -3.36336,0.68317 -3.80747,1.10747 -1.1681,1.11601 50.68312,109.46167 55.54143,116.05652 4.63427,6.29073 9.94898,12.15039 10.51082,11.58856 0.20981,-0.20982 -1.48036,-6.28695 -3.75594,-13.50475 z"
       style="fill:#000000;fill-opacity:0" />
    <path
       id="path3344"
       d="m 0,134.30508 0,-141.4999953 89,0 89,0 0,141.4999953 0,141.5 -89,0 -89,0 0,-141.5 z"
       style="fill:none" />
    <path
       id="path3342"
       d="M 169.14247,272.93927 C 152.42049,253.42406 152.38826,253.36784 124.38122,194.84361 109.8145,164.40463 97.580542,139.18343 97.194643,138.7965 c -0.3859,-0.38692 -4.8597,0.85834 -9.94178,2.76725 -16.391472,6.15688 -25.071086,7.83269 -40.851595,7.88738 L 32.302535,149.5 25.401268,145.99189 C 10.553297,138.44425 7.5171944,125.34271 16.60475,108.03272 18.472137,104.47572 20,100.92912 20,100.15139 20,97.036465 11.185387,82.28244 6.2700051,77.169932 0.69463902,71.370972 -0.71410171,67.618221 0.51088188,61.828175 1.7847152,55.807234 7.3240738,46.822569 14.523754,39.099739 18.420464,34.919882 22.818556,29.40028 24.297293,26.833956 30.837179,15.484085 44.803779,7.9939441 66,4.4692299 71.225,3.6003661 79.55,2.1968005 84.5,1.3501954 100.59302,-1.4022159 113.01518,1.2975274 116.32202,8.2661675 117.24491,10.211017 118,12.426166 118,13.188721 c 0,0.762554 2.302,3.619546 5.11555,6.348871 5.40162,5.239922 9.85835,13.185743 9.87468,17.605419 0.0105,2.84758 1.55724,3.856989 5.91006,3.856989 4.26776,0 12.99346,2.90131 17.30315,5.75333 7.3105,4.837858 11.18434,15.379132 8.84473,24.067772 C 163.61514,76.142971 162,76.206493 162,70.940983 c 0,-4.874184 -1.49864,-4.427004 -2.46726,0.736209 -1.49013,7.943036 -9.26113,20.835656 -18.87976,31.322808 -3.27893,3.575 -0.71723,1.22208 5.69267,-5.228708 C 152.75554,91.320502 158,86.394901 158,86.825511 c 0,0.43061 -1.40864,3.008529 -3.1303,5.728708 -4.34888,6.871092 -17.73192,19.957181 -27.8697,27.251301 -4.675,3.36366 -9.5111,6.92096 -10.74688,7.90511 l -2.24689,1.78937 26.64815,55.5 26.64814,55.5 4.87546,19.41984 c 2.68151,10.68091 4.72255,19.87857 4.53565,20.43926 -0.18689,0.56069 -3.59391,-2.77824 -7.57116,-7.41983 z m -5.15363,-22.85546 c -3.43845,-10.90626 -8.47497,-21.77791 -29.81313,-64.35353 L 108.5,134.5 l -3,0.33601 c -1.65,0.18481 -3.36336,0.68317 -3.80747,1.10747 -1.1681,1.11601 50.68312,109.46167 55.54143,116.05652 4.63427,6.29073 9.94898,12.15039 10.51082,11.58856 0.20981,-0.20982 -1.48036,-6.28695 -3.75594,-13.50475 z"
       style="fill:#cd0303" />
    <path
       id="path3350"
       d="M 169.14247,272.93927 C 152.42049,253.42406 152.38826,253.36784 124.38122,194.84361 109.8145,164.40463 97.580542,139.18343 97.194643,138.7965 c -0.3859,-0.38692 -4.8597,0.85834 -9.94178,2.76725 -16.3655,6.14713 -25.078527,7.83268 -40.771691,7.88738 -13.918035,0.0485 -14.067662,0.0248 -20.810804,-3.29373 C 16.101083,141.44799 13,137.01165 13,128.03146 c 0,-7.87787 2.047305,-15.52605 6.10475,-22.80568 3.166946,-5.681956 3.01023,-7.124559 -1.287507,-11.85175 C 16.754186,92.204746 15.269454,88.916864 14.517839,86.067626 12.953433,80.137238 11.495359,78 9.0139189,78 8.0562635,78 6.0863636,76.813636 4.6363636,75.363636 2.268315,72.995588 2,71.98263 2,65.410689 2,61.386569 2.5445937,56.835432 3.2102082,55.297053 9.8150669,40.031795 30.463102,22.480857 56.5,10.000449 70.588665,3.2472535 81.694306,0.5950703 96,0.56729496 112.69974,0.53487144 118.40571,5.1793604 118.11538,18.56853 c -0.13221,6.097346 -0.009,6.407487 5.47413,13.748125 l 5.60939,7.510056 6.15055,0.65323 c 18.58768,1.974136 28.31839,8.940471 30.15893,21.591161 C 166.1683,66.606943 164.64159,75 163.15659,75 c -0.42148,0 -1.23339,-3.769926 -1.80426,-8.377614 -1.80286,-14.551681 -6.6318,-18.937099 -24.20493,-21.98178 -7.09883,-1.229929 -8.86837,-1.947064 -11.78873,-4.777593 C 120.20524,34.868118 116,25.750698 116,19.572412 116,4.0101836 98.826568,-0.21264839 71.5,8.6301603 54.188521,14.232112 28.703912,29.837169 18.596836,41.024494 13.382893,46.795706 7.1806363,56.615452 6.0147942,60.945059 4.5974559,66.208651 6.3205702,71.379991 10.572338,74.622973 13.8225,77.101992 14.555104,77.24453 21.280595,76.706403 38.624483,75.318668 61.262495,66.582714 80.5,53.853777 c 9.668691,-6.39751 23.22291,-19.188507 27.659,-26.101555 3.64195,-5.675487 5.23656,-4.786937 1.82065,1.014503 C 95.05837,54.108391 51.610478,80 24.006704,80 c -3.670354,0 -6.94094,0.267569 -7.267969,0.594598 -0.327029,0.327029 1.727591,5.060874 4.565821,10.519655 4.335073,8.337666 4.964724,10.201807 3.936852,11.655397 -2.954583,4.17832 -6.374887,11.64087 -7.774891,16.96355 -3.082154,11.71806 2.316154,21.30273 14.033483,24.91638 9.032086,2.78552 27.26071,2.48954 38.5,-0.62514 28.135488,-7.79701 56.94656,-25.50057 78.75,-48.389585 5.0875,-5.340801 9.25,-9.331618 9.25,-8.868482 0,0.463136 -1.40864,3.067667 -3.1303,5.787846 -4.34888,6.871092 -17.73192,19.957181 -27.8697,27.251301 -4.675,3.36366 -9.5111,6.92096 -10.74688,7.90511 l -2.24689,1.78937 26.64815,55.5 26.64814,55.5 4.87546,19.41984 c 2.68151,10.68091 4.72255,19.87857 4.53565,20.43926 -0.18689,0.56069 -3.59391,-2.77824 -7.57116,-7.41983 z"
       style="fill:#232424;fill-opacity:1" />
    <path
       id="path3340"
       d="m 39.5,105.0929 c -4.904873,-0.58162 -4.819259,-0.61741 4.5,-1.88097 14.209891,-1.92666 20.382832,-3.766691 32.5,-9.687581 17.256099,-8.431958 30.82583,-20.394686 41.59957,-36.673124 2.42024,-3.656826 4.95176,-7.481826 5.6256,-8.5 1.04232,-1.574938 1.08526,-1.445883 0.2877,0.864711 -6.97625,20.210859 -29.276229,42.275758 -51.413794,50.871804 -6.841749,2.65666 -22.759432,6.1162 -26.480066,5.75516 -0.890456,-0.0864 -3.86901,-0.42391 -6.61901,-0.75 z"
       style="fill:#172424;fill-opacity:1" />
    <path
       id="path3350-3"
       d="m 170.25717,277.83026 c -8.918,-3.12544 -8.9352,-3.13444 -23.87167,-12.50731 -7.7686,-4.87491 -14.29312,-8.91418 -14.49893,-8.97614 -0.2058,-0.0619 -2.59173,0.13746 -5.30207,0.44319 -8.72791,0.98448 -13.37466,1.25443 -21.744,1.26318 -7.422639,0.008 -7.502454,0.004 -11.09863,-0.5275 -5.103414,-0.75422 -6.757263,-1.46472 -6.757263,-2.90293 0,-1.26167 1.091842,-2.48656 3.255728,-3.65242 1.688977,-0.90998 1.605408,-1.14102 -0.686648,-1.89809 -0.566926,-0.18727 -1.358767,-0.71384 -1.759598,-1.17015 -0.834319,-0.94978 -1.611925,-1.29207 -2.935303,-1.29207 -0.510733,0 -1.561294,-0.19 -2.334606,-0.42222 -1.262909,-0.37925 -1.406009,-0.54147 -1.406009,-1.59399 0,-0.64448 0.290459,-1.37336 0.64542,-1.61973 3.522444,-2.44479 14.534305,-5.25564 28.420069,-7.25443 7.51363,-1.08154 13.43641,-1.5063 21.06579,-1.51074 8.90617,-0.006 11.94922,0.73863 11.79439,2.88295 -0.0706,0.97652 -0.005,1.02619 2.91944,2.20181 l 2.99152,1.20277 3.28017,0.10462 c 9.91303,0.31616 15.10254,1.43184 16.08409,3.4579 0.35196,0.72643 -0.46225,2.07061 -1.25422,2.07061 -0.22478,0 -0.65776,-0.60377 -0.96222,-1.34171 -0.9615,-2.3305 -3.5368,-3.03284 -12.90877,-3.52046 -3.78589,-0.19698 -4.72961,-0.31183 -6.28707,-0.76515 -2.74838,-0.79994 -4.99109,-2.26013 -4.99109,-3.24961 0,-2.49234 -9.15878,-3.16865 -23.73236,-1.75244 -9.23242,0.89717 -22.823643,3.39638 -28.213865,5.18807 -2.780662,0.92428 -6.088395,2.49695 -6.71016,3.19035 -0.755878,0.84299 0.163211,1.67119 2.430603,2.19057 1.733352,0.39702 2.124048,0.41985 5.710839,0.33366 9.249673,-0.22224 21.322793,-1.62134 31.582383,-3.65993 5.15643,-1.02458 12.38505,-3.07311 14.75086,-4.18025 1.94229,-0.90895 2.79272,-0.76665 0.97099,0.16248 -7.95769,4.05856 -31.12896,8.20518 -45.850374,8.20518 -1.957431,0 -3.70168,0.0429 -3.876084,0.0952 -0.174457,0.0524 0.921331,0.81052 2.434982,1.68476 2.311958,1.33531 2.647765,1.63386 2.099576,1.86666 -1.57572,0.66916 -3.399802,1.86432 -4.146433,2.71677 -1.643751,1.87669 1.235237,3.41171 7.484218,3.99046 4.816915,0.4461 14.538455,0.3987 20.532485,-0.10013 15.005,-1.24872 30.37025,-4.084 41.99828,-7.74976 2.71324,-0.85535 4.93314,-1.49449 4.93314,-1.42033 0,0.0742 -0.75123,0.49131 -1.66944,0.92694 -2.31929,1.10044 -9.45661,3.19623 -14.86323,4.3644 -2.49322,0.53871 -5.07237,1.10842 -5.73141,1.26603 l -1.1983,0.28658 14.21177,8.88853 14.21175,8.88852 2.60014,3.11016 c 1.43008,1.71059 2.51858,3.18363 2.41894,3.27342 -0.0996,0.0898 -1.91669,-0.44494 -4.03782,-1.18831 z"
       style="opacity:0.29899998;fill:#232424;fill-opacity:1" />
  </g>
</svg>
