<?xml version="1.0" encoding="UTF-8" standalone="no"?>
<!-- Created with Inkscape (http://www.inkscape.org/) -->

<svg
   xmlns:dc="http://purl.org/dc/elements/1.1/"
   xmlns:cc="http://creativecommons.org/ns#"
   xmlns:rdf="http://www.w3.org/1999/02/22-rdf-syntax-ns#"
   xmlns:svg="http://www.w3.org/2000/svg"
   xmlns="http://www.w3.org/2000/svg"
   xmlns:sodipodi="http://sodipodi.sourceforge.net/DTD/sodipodi-0.dtd"
   xmlns:inkscape="http://www.inkscape.org/namespaces/inkscape"
   width="210mm"
   height="297mm"
   viewBox="0 0 744.09448819 1052.3622047"
   id="svg2"
   version="1.1"
   inkscape:version="0.91 r13725"
   sodipodi:docname="shape.svg">
  <defs
     id="defs4" />
  <sodipodi:namedview
     id="base"
     pagecolor="#ffffff"
     bordercolor="#666666"
     borderopacity="1.0"
     inkscape:pageopacity="0.0"
     inkscape:pageshadow="2"
     inkscape:zoom="0.5"
     inkscape:cx="365.7241"
     inkscape:cy="468.27244"
     inkscape:document-units="px"
     inkscape:current-layer="layer1"
     showgrid="false"
     inkscape:window-width="1393"
     inkscape:window-height="876"
     inkscape:window-x="1327"
     inkscape:window-y="24"
     inkscape:window-maximized="1" />
  <metadata
     id="metadata7">
    <rdf:RDF>
      <cc:Work
         rdf:about="">
        <dc:format>image/svg+xml</dc:format>
        <dc:type
           rdf:resource="http://purl.org/dc/dcmitype/StillImage" />
        <dc:title></dc:title>
      </cc:Work>
    </rdf:RDF>
  </metadata>
  <g
     inkscape:label="Livello 1"
     inkscape:groupmode="layer"
     id="layer1">
    <circle
       style="fill:#ff0000;fill-rule:evenodd;stroke:#000000;stroke-width:1px;stroke-linecap:butt;stroke-linejoin:miter;stroke-opacity:1"
       id="path3336"
       cx="353"
       cy="471.36218"
       r="245.71428" />
    <g
       transform="scale(0.95261703,1.0497398)"
       style="font-style:normal;font-variant:normal;font-weight:normal;font-stretch:normal;font-size:190.66532898px;line-height:125%;font-family:Purisa;-inkscape-font-specification:Purisa;letter-spacing:0px;word-spacing:0px;fill:#000000;fill-opacity:1;stroke:none;stroke-width:1px;stroke-linecap:butt;stroke-linejoin:miter;stroke-opacity:1"
       id="text3338">
      <path
         d="m 127.17171,466.15129 q 0,3.8133 -2.85998,6.86395 -2.85998,2.85998 -2.85998,4.76663 0,2.09732 1.33465,4.9573 1.90666,4.19464 4.76664,5.14796 3.05064,0.95333 14.68123,0.95333 9.9146,0 14.87189,-1.14399 4.9573,-1.14399 9.53327,-4.57597 7.43595,-5.33863 9.15194,-8.38927 1.90665,-3.24131 1.90665,-10.86793 0,-5.71996 -2.09732,-8.00794 -2.09732,-2.47865 -11.24925,-6.67329 -13.15591,-6.10129 -16.96922,-6.10129 -8.19861,0 -25.16782,-14.2999 -16.77855,-14.2999 -16.77855,-21.35451 0,-10.10527 10.29593,-23.07051 10.29593,-13.15591 23.0705,-19.2572 6.48262,-3.24131 24.59583,-3.24131 8.00794,0 12.01192,1.14399 4.00397,1.144 8.57994,4.9573 3.24131,2.66932 5.71996,6.29196 2.47864,3.43197 2.47864,5.33863 0,4.57597 -1.52532,4.57597 -1.52532,0 -4.00397,-1.90666 -2.47865,-1.90665 -5.14796,-4.00397 -2.66932,-2.28798 -7.62662,-4.19464 -4.9573,-1.90665 -10.86792,-1.90665 -16.01589,0 -29.36246,11.63058 -13.15591,11.63059 -13.15591,25.16783 0,11.05859 39.27706,23.6425 30.88778,9.72393 30.88778,30.31579 0,4.19463 -1.52532,9.72393 -4.3853,14.87189 -14.8719,20.59185 -10.48659,5.71996 -36.60774,7.43595 l -17.15988,1.14399 -5.14796,-10.67726 q -4.00397,-7.81727 -4.00397,-15.63455 0,-6.48262 3.05064,-10.4866 3.05065,-4.00397 8.57994,-4.00397 4.19464,0 4.19464,5.14797 z"
         style=""
         id="path3343" />
      <path
         d="m 222.14687,485.59915 q 0,-15.25323 -3.8133,-61.39424 -3.62264,-46.33167 -3.62264,-63.87288 0,-10.10526 1.14399,-12.20258 2.28798,-4.00397 4.3853,-4.00397 3.43198,0 4.3853,6.67328 1.144,6.67329 3.05065,33.74777 1.52532,21.73584 2.66931,36.41707 l 1.71599,22.49851 3.43198,-7.43595 q 3.8133,-8.57994 18.6852,-22.4985 14.8719,-13.91857 20.01986,-13.91857 4.76663,0 10.48659,5.33863 5.71996,5.33863 7.43595,11.43992 1.52532,5.14796 1.52532,46.33167 0,29.74379 -0.57199,35.27309 -0.572,5.33863 -3.62264,5.33863 -3.05065,0 -4.00398,-5.5293 -0.76266,-5.52929 -1.52532,-31.84111 -1.14399,-36.79841 -4.57597,-47.09434 l -3.05064,-9.53326 -11.05859,10.29593 q -8.77061,8.38927 -16.20655,19.06653 -7.24529,10.67726 -9.9146,18.87587 -1.71599,5.91062 -2.85998,18.87586 -1.14399,12.96525 -2.85998,21.35452 -1.52532,8.38928 -4.57597,8.38928 -1.33466,0 -3.24131,-1.52533 -3.43198,-2.85998 -3.43198,-19.06653 z"
         style=""
         id="path3345" />
      <path
         d="m 375.46266,407.04503 q -8.77061,0 -18.6852,3.62265 -9.72393,3.62264 -17.35055,7.43594 -7.62661,3.62264 -11.05859,3.62264 -2.28798,0 -2.28798,-1.90665 0,-2.66931 1.14399,-4.57597 1.14399,-1.90665 4.19464,-3.62264 3.05064,-1.71599 5.71996,-2.85998 2.85998,-1.14399 8.96127,-3.24131 6.10129,-2.28798 10.48659,-4.19464 10.29593,-4.00397 17.35055,-4.00397 12.58391,0 19.63853,13.72791 3.43197,6.67328 4.00397,12.39324 0.57199,5.5293 0.95332,31.45978 0.19067,14.49057 0.572,24.40516 0.38133,9.72394 0.76266,12.39325 l 0.38133,2.47865 q 0,2.66931 -2.47865,5.71996 -2.28798,3.05065 -3.43197,3.05065 -3.81331,0 -5.91063,-12.01192 -2.09732,-12.20258 -2.28798,-12.20258 -0.572,0 -1.71599,2.09732 -3.81331,6.29195 -15.44389,13.91857 -11.43992,7.43594 -19.2572,7.43594 -4.76663,0 -11.24925,-1.71598 -6.29196,-1.90666 -9.15194,-4.00398 -2.09732,-1.71598 -3.62264,-6.86395 -1.33466,-5.14796 -1.33466,-10.48659 0,-8.00794 4.19464,-13.7279 4.3853,-5.91063 15.44389,-12.01192 12.01192,-7.05462 23.26117,-7.05462 4.57597,0 7.62661,1.52532 3.05065,1.52533 4.57597,3.24132 1.52532,1.52532 2.47865,1.52532 0.95333,0 3.62264,2.09732 2.85998,1.90665 3.05065,1.90665 0.76266,0 0.76266,-4.19464 0,-25.54915 -3.62264,-35.46375 -3.43198,-9.9146 -10.29593,-9.9146 z m 8.57994,59.10626 q 0,-0.76266 -0.572,-1.71599 -0.38133,-1.14399 -1.90665,-2.47865 -1.33466,-1.52532 -3.62264,-2.66932 -2.09732,-1.33465 -5.91063,-2.09731 -3.8133,-0.95333 -8.57994,-0.95333 -8.19861,0 -14.49056,2.85998 -6.10129,2.85998 -9.15194,7.24528 -3.05064,4.3853 -4.57596,8.19861 -1.33466,3.62264 -1.33466,6.48262 0,4.76664 0.76266,6.48262 0.95333,1.71599 4.3853,3.62264 4.19464,2.09732 7.62662,2.09732 6.48262,0 16.01588,-4.57596 9.72393,-4.76664 9.72393,-6.86396 0,-1.52532 5.71996,-7.24528 5.91063,-5.91062 5.91063,-8.38927 z"
         style=""
         id="path3347" />
      <path
         d="m 429.35241,412.57433 q 5.33863,-4.76663 5.33863,-8.19861 0,-3.43198 2.09732,-8.19861 2.28798,-4.9573 6.48262,-4.9573 2.66931,0 4.57597,3.05065 2.09731,2.85998 4.3853,2.85998 1.71599,0 14.10923,-2.85998 12.39325,-3.05065 21.73585,-3.05065 7.81728,0 17.35055,2.09732 19.82919,4.57597 19.82919,24.59583 0,15.25322 -11.82125,40.61171 -7.81728,16.77855 -19.06653,25.93049 -11.24926,8.96127 -24.02384,8.96127 -3.62264,0 -5.52929,-0.38133 l -8.7706,-1.33466 2.09731,10.29593 q 6.86396,32.4131 6.86396,40.61171 0,3.81331 -1.33466,4.9573 -1.33466,1.33466 -4.57597,1.33466 -3.43198,0 -4.9573,-1.71599 -1.33466,-1.52532 -2.85998,-6.67329 -7.43595,-26.69314 -12.01191,-79.6981 -2.09732,-26.12115 -3.62265,-31.84111 -1.33465,-5.91063 -5.52929,-5.91063 -6.10129,0 -6.10129,-3.62264 0,-2.09732 5.33863,-6.86395 z m 28.40913,63.30089 q 2.85998,0 6.67329,2.47865 3.81331,2.28798 6.48262,2.28798 7.62661,0 17.54121,-9.72393 9.9146,-9.9146 16.77855,-23.83317 7.05462,-13.91857 7.05462,-24.78649 0,-5.91062 -2.66932,-10.67726 -2.47865,-4.76663 -4.3853,-5.33863 -3.24131,-1.33465 -11.24925,-1.33465 -17.73188,0 -31.45978,4.3853 l -12.77458,4.19464 0.38133,12.20258 q 0.38133,12.20258 2.09732,31.07845 0.95333,11.24925 2.09732,15.06256 1.14399,3.8133 3.43197,4.00397 z"
         style=""
         id="path3349" />
      <path
         d="m 645.62351,461.00332 q 0.95332,0 0.95332,1.52533 0,3.43197 -5.14796,11.05858 -4.9573,7.62662 -10.67726,12.58392 -20.01986,17.73187 -40.03972,17.73187 -7.62661,0 -15.25322,-3.43197 -7.43595,-3.62265 -13.91857,-10.10527 -6.48262,-6.48262 -10.4866,-17.35054 -4.00397,-10.86793 -4.00397,-24.2145 0,-8.19861 1.90665,-13.91857 3.81331,-11.63058 16.20656,-24.59582 12.58391,-12.96525 23.6425,-12.96525 3.05064,0 9.15193,0.572 9.15194,0.76266 12.77458,1.90665 3.81331,1.14399 8.57994,4.76664 6.10129,4.57596 10.48659,11.82125 4.57597,7.05461 4.57597,11.82125 0,6.10129 -4.76663,9.3426 -4.76663,3.05064 -18.49454,6.10129 -17.73187,4.00397 -35.08242,4.9573 l -17.73187,0.95332 0,7.62662 q 0,14.10923 13.1559,26.69314 9.9146,9.53327 20.59186,9.53327 8.19861,0 17.35054,-4.9573 9.34261,-5.14796 15.82523,-11.24925 6.48262,-6.10129 12.39324,-11.05859 5.91063,-5.14797 8.00795,-5.14797 z m -30.69712,-46.52234 q -5.91063,-5.33863 -8.96127,-6.67328 -2.85998,-1.52533 -7.62662,-1.52533 -9.53326,0 -14.29989,1.90666 -4.57597,1.71598 -9.34261,7.24528 -14.49056,16.58788 -14.49056,22.11718 0,2.47865 4.57597,2.47865 17.35054,0 49.19165,-7.24529 9.53327,-2.28798 9.53327,-8.00794 0,-2.66931 -8.57994,-10.29593 z"
         style=""
         id="path3351" />
    </g>
  </g>
</svg>
